<?xml version="1.0" encoding="UTF-8"?>
<svg width="147px" height="145px" viewBox="0 0 147 145" version="1.1" xmlns="http://www.w3.org/2000/svg" xmlns:xlink="http://www.w3.org/1999/xlink">
    <!-- Generator: Sketch 51.3 (57544) - http://www.bohemiancoding.com/sketch -->
    <title>Group 2</title>
    <desc>Created with Sketch.</desc>
    <defs></defs>
    <g id="Page-1" stroke="none" stroke-width="1" fill="none" fill-rule="evenodd">
        <g id="Group-2" fill-rule="nonzero">
            <path d="M73.239,0.117 C32.918,0.117 0.109,32.429 0.109,72.121 C0.109,111.809 32.918,144.117 73.239,144.117 C113.577,144.117 146.384,111.808 146.384,72.121 C146.383,32.429 113.577,0.117 73.239,0.117 Z M73.239,136.429 C37.177,136.429 7.92,107.627 7.92,72.12 C7.92,36.617 37.177,7.817 73.239,7.817 C109.322,7.817 138.576,36.617 138.576,72.12 C138.575,107.628 109.321,136.429 73.239,136.429 Z" id="Shape" fill="#8C191C"></path>
            <path d="M73.246,5.354 C110.718,5.354 141.091,35.248 141.091,72.121 C141.091,109.004 110.718,138.887 73.246,138.887 C35.779,138.887 5.404,109.004 5.404,72.121 C5.404,35.248 35.779,5.354 73.246,5.354 Z" id="Shape" fill="#D1C194"></path>
            <path d="M125.709,101.944 C121.916,97.149 119.779,91.228 119.779,85.083 C119.779,83.509 119.905,81.939 120.192,80.354 C120.198,80.354 120.214,80.258 120.214,80.258 C121.616,72.479 126.346,65.858 132.924,61.795 C125.317,60.182 118.576,55.549 114.529,48.656 C112.033,44.402 110.806,39.667 110.806,34.938 C110.806,32.096 111.257,29.267 112.132,26.545 C105.28,30.088 97.101,30.751 89.528,28.054 C81.994,25.341 76.188,19.611 73.257,12.525 C70.33,19.611 64.503,25.344 56.922,28.075 C49.406,30.765 41.245,30.089 34.391,26.545 C35.265,29.266 35.717,32.074 35.717,34.915 C35.717,39.657 34.471,44.435 31.966,48.745 C27.936,55.578 21.186,60.191 13.592,61.799 C20.102,65.824 24.81,72.351 26.278,80.059 C26.278,80.059 26.362,80.589 26.367,80.619 C26.616,82.101 26.741,83.589 26.741,85.082 C26.741,91.228 24.604,97.158 20.819,101.943 C28.487,100.91 36.411,103.019 42.548,108.041 L42.765,108.229 C42.765,108.229 42.913,108.354 42.99,108.417 C48.9,113.475 52.253,120.696 52.546,128.19 C57.764,122.527 65.219,119.093 73.307,119.079 C81.317,119.079 88.756,122.503 93.98,128.171 C94.27,120.538 97.754,113.194 103.944,108.074 C110.093,103.025 118.025,100.911 125.709,101.944 Z" id="Shape" fill="#8C191C"></path>
            <path d="M73.299,28.201 C97.94,28.201 117.918,47.86 117.918,72.121 C117.918,96.381 97.94,116.043 73.299,116.043 C48.651,116.043 28.678,96.381 28.678,72.121 C28.677,47.86 48.651,28.201 73.299,28.201 Z" id="Shape" fill="#D1C194"></path>
            <g id="Group" transform="translate(6.000000, 5.000000)" fill="#07505C">
                <path d="M18.414,78.793 C18.414,78.455 18.341,78.132 18.325,77.783 C12.098,83.934 8.098,91.197 8.098,96.369 C8.098,97.233 8.242,97.99 8.471,98.706 C14.352,94.236 18.414,86.113 18.414,78.793 Z M9.992,101.086 C13.72,104.974 23.583,105.898 33.486,103.341 C26.988,99.237 17.139,98.268 9.992,101.086 Z M101.044,103.336 C110.95,105.898 120.81,104.974 124.547,101.082 C117.398,98.268 107.548,99.237 101.044,103.336 Z M116.119,78.778 C116.119,86.113 120.175,94.236 126.058,98.726 C126.283,98.02 126.433,97.233 126.433,96.383 C126.433,91.207 122.435,83.925 116.201,77.792 C116.186,78.121 116.119,78.435 116.119,78.778 Z M82.229,20.006 C79.518,10.062 73.769,1.904 68.6,0.653 C69.677,8.398 75.464,16.546 82.229,20.006 Z M52.311,20.006 C59.069,16.546 64.856,8.392 65.933,0.653 C60.77,1.904 55.014,10.061 52.311,20.006 Z M36.724,109.961 C36.724,118.621 39.29,126.233 43.211,128.846 C43.524,127.358 43.831,125.876 43.831,124.298 C43.831,117.77 41.159,110.817 36.96,106.325 C36.869,107.537 36.724,108.769 36.724,109.961 Z M116.978,73.506 C126.529,69.15 133.589,62.296 133.893,57.056 C126.372,59.401 119.255,66.394 116.978,73.506 Z M48.151,21.486 C39.813,15.798 30.273,13.416 25.444,15.798 C31.188,20.878 40.584,23.215 48.151,21.486 Z M26.956,31.047 C26.956,26.158 25.664,21.252 23.276,17.481 C21.898,19.275 21.176,21.998 21.176,25.304 C21.176,29.835 22.512,35.333 24.964,40.596 C26.18,37.703 26.956,34.464 26.956,31.047 Z M45.802,129.76 C51.095,130.401 59.143,124.858 65.111,116.418 C57.518,117.354 49.471,122.879 45.802,129.76 Z M133.398,54.524 C131.312,49.645 122.119,45.393 111.662,44.488 C116.304,50.521 125.501,54.816 133.398,54.524 Z M0.637,57.056 C0.925,62.284 7.993,69.154 17.554,73.509 C15.275,66.383 8.16,59.401 0.637,57.056 Z M90.694,124.267 C90.694,125.875 90.996,127.357 91.317,128.845 C95.239,126.233 97.812,118.62 97.812,109.985 C97.812,108.777 97.666,107.537 97.559,106.325 C93.354,110.816 90.694,117.769 90.694,124.267 Z M109.094,15.798 C104.246,13.413 94.721,15.798 86.392,21.481 C93.876,23.174 103.41,20.799 109.094,15.798 Z M22.878,44.494 C12.431,45.392 3.227,49.635 1.14,54.519 C9.03,54.803 18.214,50.521 22.878,44.494 Z M69.407,116.418 C75.379,124.857 83.431,130.4 88.722,129.76 C85.059,122.873 76.992,117.329 69.407,116.418 Z M109.583,40.595 C112.019,35.332 113.364,29.849 113.364,25.32 C113.364,22.012 112.635,19.286 111.256,17.505 C108.871,21.264 107.577,26.177 107.577,31.06 C107.577,34.464 108.349,37.713 109.583,40.595 Z" id="Shape"></path>
                <g id="Shape" transform="translate(23.000000, 25.000000)">
                    <path d="M26.432,22.645 C19.288,20.578 12.159,19.702 5.807,19.89 C8.796,25.609 13.178,31.469 18.671,36.723 L39.59,39.434 L26.432,22.645 Z"></path>
                    <path d="M17.901,38.49 C11.059,41.431 5.006,45.275 0.233,49.447 L0.233,49.458 C6.255,51.929 13.428,53.648 21.057,54.202 L38.94,43.014 L17.901,38.49 Z"></path>
                    <path d="M21.648,56.027 C18.323,62.619 16.185,69.404 15.279,75.623 C15.279,75.623 15.279,75.627 15.284,75.627 C21.518,73.706 28.179,70.472 34.397,66.033 L40.799,46.149 L21.648,56.027 Z"></path>
                    <path d="M70.598,36.591 C75.893,31.586 80.161,26.019 83.143,20.567 L83.143,20.559 C76.544,20.243 69.077,21.069 61.619,23.186 L48.918,39.445 L70.598,36.591 Z"></path>
                    <path d="M60.769,21.284 C61.573,14.077 61.192,7.104 59.929,1.032 L59.922,1.026 C54.675,4.956 49.525,10.274 45.201,16.583 L46.107,37.106 L60.769,21.284 Z"></path>
                    <path d="M43.306,15.827 C39.198,9.772 34.352,4.63 29.383,0.766 C29.383,0.766 29.383,0.766 29.378,0.766 C27.937,7.063 27.463,14.345 28.236,21.865 L42.43,37.116 L43.306,15.827 Z"></path>
                    <path d="M88.186,50.21 C83.314,45.78 77.056,41.697 69.948,38.607 L49.578,43.021 L68.062,54.572 C75.406,54.084 82.326,52.498 88.181,50.216 L88.181,50.21 L88.186,50.21 Z"></path>
                    <path d="M54.328,66.635 C60.296,70.962 66.662,74.163 72.682,76.129 C71.924,70.378 67.448,58.934 66.098,55.583 L47.73,46.153 L54.328,66.635 Z"></path>
                    <path d="M35.996,67.167 C37.739,74.31 40.542,80.823 43.879,86.149 L43.881,86.149 C47.44,80.698 50.436,73.991 52.299,66.616 L44.26,47.391 L35.996,67.167 Z"></path>
                </g>
            </g>
            <g id="Group" transform="translate(24.000000, 23.000000)" fill="#8C191C">
                <path d="M0.38,49.121 C0.38,75.675 22.324,97.272 49.301,97.272 C76.267,97.272 98.211,75.674 98.211,49.121 C98.211,22.571 76.267,0.968 49.301,0.968 C22.326,0.968 0.38,22.571 0.38,49.121 Z M2.437,49.121 C2.437,23.683 23.452,2.992 49.301,2.992 C75.137,2.992 96.166,23.683 96.166,49.121 C96.166,74.565 75.138,95.264 49.301,95.264 C23.451,95.255 2.437,74.565 2.437,49.121 Z" id="Shape"></path>
                <path d="M59.357,49.097 C59.357,54.598 54.836,59.035 49.261,59.035 C43.707,59.035 39.182,54.597 39.182,49.097 C39.182,43.615 43.707,39.18 49.261,39.18 C54.836,39.18 59.357,43.615 59.357,49.097 Z" id="Shape"></path>
            </g>
            <path d="M62.686,72.107 C62.686,77.864 67.438,82.551 73.282,82.551 C79.127,82.551 83.881,77.863 83.881,72.107 C83.881,66.36 79.128,61.685 73.282,61.685 C67.439,61.685 62.686,66.361 62.686,72.107 Z M63.712,72.107 C63.712,66.912 68.004,62.689 73.282,62.689 C78.56,62.689 82.867,66.912 82.867,72.107 C82.867,77.313 78.565,81.545 73.282,81.545 C68.004,81.546 63.712,77.313 63.712,72.107 Z" id="Shape" fill="#D1C194"></path>
        </g>
    </g>
</svg>